<?xml version="1.0" encoding="UTF-8"?>
<svg xmlns="http://www.w3.org/2000/svg" version="1.1" viewBox="0 0 1000 1000">
  <defs>
    <style>
      .cls-1 {
        fill: #3498db;
      }
    </style>
  </defs>
  <!-- Generator: Adobe Illustrator 28.7.2, SVG Export Plug-In . SVG Version: 1.2.0 Build 154)  -->
  <g>
    <g id="Layer_1">
      <path class="cls-1" d="M292.9,3.5c-53.2,2.5-89.5,11-121.3,23.5-32.9,12.8-60.7,30-88.4,57.8-27.7,27.8-44.8,55.7-57.5,88.6-12.3,31.8-20.6,68.2-23,121.4C.3,348.1-.2,365.2,0,501s.9,152.8,3.4,206.1c2.5,53.2,11,89.5,23.5,121.3,12.8,32.9,30,60.7,57.8,88.5,27.8,27.7,55.7,44.8,88.7,57.5,31.8,12.3,68.2,20.7,121.4,23,53.2,2.3,70.4,2.9,206.1,2.6,135.7-.3,152.8-.9,206.2-3.4s89.5-11,121.2-23.5c32.9-12.9,60.7-30,88.5-57.8s44.8-55.7,57.5-88.7c12.3-31.8,20.7-68.2,23-121.3,2.3-53.4,2.9-70.4,2.6-206.2s-.9-152.8-3.4-206.1-11-89.5-23.5-121.3c-12.8-32.9-30-60.7-57.8-88.4s-55.7-44.8-88.7-57.5c-31.8-12.3-68.2-20.7-121.4-23S634.8-.2,499,0s-152.8.8-206.1,3.4M298.8,907.4c-48.8-2.1-75.2-10.2-92.9-17-23.4-9-40-19.9-57.6-37.3s-28.4-34.1-37.5-57.4c-6.8-17.6-15.1-44.1-17.4-92.8-2.5-52.7-3-68.5-3.3-202s.2-149.3,2.5-202c2.1-48.7,10.2-75.2,17-92.8,9-23.4,19.8-40,37.3-57.6s34.1-28.4,57.4-37.5c17.6-6.9,44.1-15.1,92.8-17.4,52.7-2.5,68.5-3,202-3.3,133.5-.3,149.3.2,202.1,2.5,48.7,2.1,75.2,10.2,92.8,17,23.4,9,40,19.8,57.6,37.3s28.4,34.1,37.5,57.4c6.9,17.6,15.1,44,17.4,92.8,2.5,52.7,3.1,68.5,3.3,202,.2,133.5-.2,149.3-2.5,202-2.1,48.8-10.2,75.2-17,92.9-9,23.3-19.8,40-37.3,57.6s-34.1,28.4-57.4,37.5c-17.6,6.9-44.1,15.1-92.8,17.4-52.7,2.5-68.5,3-202,3.3s-149.3-.2-202-2.5M706.4,232.8c0,33.1,27,60,60.1,59.9s60-27,59.9-60.1c0-33.1-27-60-60.1-59.9,0,0,0,0,0,0-33.1,0-59.9,27-59.9,60.1M243.3,500.5c.3,141.8,115.4,256.5,257.2,256.2s256.5-115.4,256.3-257.2-115.5-256.5-257.2-256.2-256.5,115.5-256.2,257.2M333.3,500.3c-.2-92,74.3-166.8,166.3-167,92-.2,166.8,74.3,167,166.3.2,92-74.3,166.8-166.3,167-92,.2-166.8-74.3-167-166.3h0"/>
    </g>
  </g>
</svg>